<svg width="87" height="28" viewBox="0 0 87 28" fill="none" xmlns="http://www.w3.org/2000/svg">
<g id="Group">
<path id="Vector" d="M83.9125 28H3.28748C1.80935 28 0.599976 26.74 0.599976 25.2V2.8C0.599976 1.26 1.80935 0 3.28748 0H83.9125C85.3906 0 86.6 1.26 86.6 2.8V25.2C86.6 26.74 85.3906 28 83.9125 28Z" fill="black"/>
<path id="Vector_2" fill-rule="evenodd" clip-rule="evenodd" d="M7.18396 13.72V6.37C7.18396 5.95 7.5199 5.6 7.85583 5.6C8.19177 5.6 8.32615 5.67 8.52771 5.81L21.4949 13.23C21.7636 13.37 21.898 13.58 21.898 13.79C21.898 14 21.7636 14.21 21.4949 14.35L8.52771 21.77C8.39333 21.84 8.19177 21.98 7.85583 21.98C7.5199 21.98 7.18396 21.63 7.18396 21.21V13.72Z" fill="url(#paint0_linear_1906_44743)"/>
<path id="Vector_3" fill-rule="evenodd" clip-rule="evenodd" d="M15.583 13.79L7.72205 5.6C7.78923 5.6 7.78923 5.6 7.85642 5.6C8.19236 5.6 8.32673 5.67 8.52829 5.81L18.0689 11.27L15.583 13.79Z" fill="url(#paint1_linear_1906_44743)"/>
<path id="Vector_4" fill-rule="evenodd" clip-rule="evenodd" d="M18.0011 16.24L15.5824 13.72L18.0683 11.13L21.4949 13.09C21.7636 13.23 21.898 13.44 21.898 13.65C21.898 13.86 21.7636 14.07 21.4949 14.21L18.0011 16.24Z" fill="url(#paint2_linear_1906_44743)"/>
<path id="Vector_5" fill-rule="evenodd" clip-rule="evenodd" d="M7.78943 21.84L15.5832 13.72L18.0019 16.24L8.5285 21.63C8.32693 21.77 8.19255 21.84 7.78943 21.84C7.85662 21.84 7.85662 21.84 7.78943 21.84Z" fill="url(#paint3_linear_1906_44743)"/>
<path id="Vector_6" fill-rule="evenodd" clip-rule="evenodd" d="M48.371 23.73C48.0351 23.45 47.7663 22.96 47.6319 22.68L48.7069 22.19C48.7741 22.33 48.9085 22.54 49.0429 22.75C49.3116 23.03 49.7147 23.31 50.1179 23.31C50.521 23.31 50.9913 23.1 51.26 22.75C51.4616 22.4 51.596 22.05 51.596 21.56V21.14C50.7897 22.19 49.11 22.05 48.1694 20.93C47.1616 19.81 47.1616 17.92 48.1694 16.8C49.1772 15.75 50.6554 15.61 51.5288 16.59V16.1H52.671V21.35C52.671 22.68 52.2007 23.45 51.596 23.94C51.1929 24.29 50.5882 24.43 50.0507 24.43C49.446 24.36 48.8413 24.15 48.371 23.73ZM76.5225 24.01L77.6647 21.21L75.6491 16.38H76.7913L78.2022 19.81L79.6132 16.38H80.7554L77.6647 24.01H76.5225ZM71.0804 21.35C70.7444 21 70.6101 20.51 70.6101 20.02C70.6101 19.6 70.7444 19.18 71.0132 18.9C71.4835 18.41 72.1554 18.2 72.8944 18.2C73.3647 18.2 73.7679 18.27 74.1038 18.48C74.1038 17.64 73.4319 17.29 72.8944 17.29C72.4241 17.29 71.9538 17.57 71.7522 18.06L70.7444 17.64C70.946 17.15 71.4835 16.24 72.8272 16.24C73.4991 16.24 74.171 16.45 74.5741 16.94C74.9772 17.43 75.1116 17.99 75.1116 18.76V21.7H73.9694V21.21C73.8351 21.42 73.5663 21.56 73.3647 21.7C73.096 21.84 72.76 21.91 72.4241 21.91C72.021 21.84 71.4163 21.7 71.0804 21.35ZM35.2694 18.83C35.2694 17.43 36.2772 15.89 38.0913 15.89C39.8382 15.89 40.9132 17.43 40.9132 18.83C40.9132 20.23 39.9054 21.77 38.0913 21.77C36.2772 21.77 35.2694 20.23 35.2694 18.83ZM41.3163 18.83C41.3163 17.43 42.3241 15.89 44.1382 15.89C45.8851 15.89 46.9601 17.43 46.9601 18.83C46.9601 20.23 45.9522 21.77 44.1382 21.77C42.3913 21.77 41.3163 20.23 41.3163 18.83ZM27.6772 20.37C25.9976 18.62 26.0647 15.75 27.7444 13.93C28.6179 13.02 29.6929 12.6 30.8351 12.6C31.9101 12.6 32.985 13.02 33.7913 13.86L32.985 14.77C31.7757 13.51 29.8272 13.58 28.6851 14.84C27.4757 16.17 27.4757 18.2 28.6851 19.53C29.8944 20.86 31.91 20.93 33.1194 19.6C33.5225 19.18 33.6569 18.62 33.7241 18.06H30.9022V16.8H34.8663C34.9335 17.08 34.9335 17.43 34.9335 17.78C34.9335 18.83 34.5304 19.88 33.8585 20.58C33.1194 21.35 32.0444 21.77 30.9694 21.77C29.76 21.7 28.5507 21.28 27.6772 20.37ZM56.0976 20.86C55.0897 19.74 55.0897 17.85 56.0976 16.66C57.1054 15.54 58.7851 15.54 59.7257 16.66C60.0616 17.01 60.2632 17.5 60.4647 17.99L56.7694 19.6C56.971 20.09 57.4413 20.51 58.1132 20.51C58.7179 20.51 59.121 20.3 59.5241 19.67L60.5319 20.37C60.3976 20.51 60.2632 20.65 60.196 20.79C59.0538 21.98 57.1054 21.98 56.0976 20.86ZM63.0851 21.7V13.93H65.5038C66.9147 13.93 68.0569 14.98 68.0569 16.24C68.0569 17.5 67.0491 18.55 65.7726 18.55H64.2944V21.63H63.0851V21.7ZM68.7288 21.7V13.93H69.871V21.7H68.7288ZM53.5444 21.56V12.88H54.7538V21.56H53.5444ZM74.0366 19.39C73.7679 19.18 73.3647 19.11 72.9616 19.11C72.1554 19.11 71.685 19.53 71.685 20.02C71.685 20.51 72.1554 20.79 72.6257 20.79C73.2976 20.79 74.0366 20.23 74.0366 19.39ZM39.6366 18.83C39.6366 17.99 39.0991 17.08 38.0913 17.08C37.0835 17.08 36.546 17.99 36.546 18.83C36.546 19.67 37.0835 20.58 38.0913 20.58C39.0319 20.58 39.6366 19.67 39.6366 18.83ZM45.6835 18.83C45.6835 17.99 45.146 17.08 44.1382 17.08C43.1304 17.08 42.5929 17.99 42.5929 18.83C42.5929 19.67 43.1304 20.58 44.1382 20.58C45.146 20.58 45.6835 19.67 45.6835 18.83ZM51.6632 19.32C51.6632 19.25 51.6632 19.18 51.7304 19.11C51.7304 19.04 51.7304 18.9 51.7304 18.83C51.7304 18.76 51.7304 18.62 51.7304 18.55V18.48C51.7304 18.41 51.6632 18.27 51.6632 18.2C51.4616 17.5 50.8569 17.01 50.2522 17.01C49.446 17.01 48.7741 17.85 48.7741 18.76C48.7741 19.74 49.446 20.51 50.3194 20.51C50.8569 20.58 51.3944 20.09 51.6632 19.32ZM56.5679 18.69L59.0538 17.57C58.7851 17.08 58.3819 16.94 58.046 16.94C57.0382 17.01 56.4335 18.13 56.5679 18.69ZM66.8476 16.31C66.8476 15.61 66.3101 15.12 65.571 15.12H64.2272V17.57H65.6382C66.31 17.57 66.8476 17.01 66.8476 16.31Z" fill="white"/>
<path id="Vector_7" fill-rule="evenodd" clip-rule="evenodd" d="M77.3957 22.61H77.3285V22.54H77.3957H77.3285V22.61H77.3957Z" fill="white"/>
<path id="Vector_8" fill-rule="evenodd" clip-rule="evenodd" d="M77.5293 22.61C77.5293 22.54 77.5293 22.54 77.5293 22.61C77.4621 22.54 77.4621 22.54 77.5293 22.61C77.4621 22.61 77.4621 22.61 77.5293 22.61ZM77.5293 22.54C77.5293 22.61 77.5293 22.61 77.5293 22.54C77.4621 22.61 77.5293 22.61 77.5293 22.54C77.5293 22.54 77.4621 22.54 77.5293 22.54Z" fill="white"/>
<path id="Vector_9" fill-rule="evenodd" clip-rule="evenodd" d="M77.5969 22.54H77.5297H77.5969V22.61V22.54Z" fill="white"/>
<path id="Vector_10" d="M26.7357 7.06999C26.7357 5.80999 27.6092 5.03999 28.6842 5.03999C29.4232 5.03999 29.8935 5.38999 30.2295 5.87999L29.692 6.22999C29.4904 5.94999 29.1545 5.73999 28.6842 5.73999C27.9451 5.73999 27.4076 6.29999 27.4076 7.13999C27.4076 7.97999 27.9451 8.53999 28.6842 8.53999C29.0873 8.53999 29.4232 8.32999 29.5576 8.18999V7.55999H28.4826V6.92999H30.2967V8.39999C29.9607 8.81999 29.4232 9.09999 28.7513 9.09999C27.6092 9.09999 26.7357 8.25999 26.7357 7.06999Z" fill="white"/>
<path id="Vector_11" d="M31.1029 9.03001V5.11001H33.656V5.74001H31.7076V6.72001H33.5889V7.35001H31.7076V8.47001H33.656V9.10001L31.1029 9.03001Z" fill="white"/>
<path id="Vector_12" d="M35.5371 9.03001V5.74001H34.3949V5.11001H37.3511V5.74001H36.209V9.03001H35.5371Z" fill="white"/>
<path id="Vector_13" d="M39.6361 9.03001V5.11001H40.308V9.03001H39.6361Z" fill="white"/>
<path id="Vector_14" d="M42.122 9.03001V5.74001H40.9799V5.11001H43.9361V5.74001H42.7939V9.03001H42.122Z" fill="white"/>
<path id="Vector_15" d="M46.0863 7.06999C46.0863 5.87999 46.8926 5.03999 48.0347 5.03999C49.1769 5.03999 49.9832 5.87999 49.9832 7.06999C49.9832 8.25999 49.1769 9.09999 48.0347 9.09999C46.8926 9.09999 46.0863 8.18999 46.0863 7.06999ZM49.2441 7.06999C49.2441 6.22999 48.7738 5.66999 47.9676 5.66999C47.2285 5.66999 46.691 6.29999 46.691 7.06999C46.691 7.90999 47.1613 8.46999 47.9676 8.46999C48.7738 8.46999 49.2441 7.83999 49.2441 7.06999Z" fill="white"/>
<path id="Vector_16" d="M53.3424 9.03001L51.3939 6.23001V9.03001H50.722V5.11001H51.3939L53.3424 7.84001V5.11001H54.0142V9.03001H53.3424Z" fill="white"/>
</g>
<defs>
<linearGradient id="paint0_linear_1906_44743" x1="11.5292" y1="4.60152" x2="15.5926" y2="20.6185" gradientUnits="userSpaceOnUse">
<stop stop-color="#006884"/>
<stop offset="1" stop-color="#8AD1D0"/>
</linearGradient>
<linearGradient id="paint1_linear_1906_44743" x1="6.94314" y1="6.89066" x2="17.3791" y2="12.3057" gradientUnits="userSpaceOnUse">
<stop stop-color="#24BBB6"/>
<stop offset="1" stop-color="#DBE692"/>
</linearGradient>
<linearGradient id="paint2_linear_1906_44743" x1="18.7364" y1="16.5341" x2="18.7364" y2="10.9702" gradientUnits="userSpaceOnUse">
<stop stop-color="#FCC072"/>
<stop offset="1" stop-color="#F58A5B"/>
</linearGradient>
<linearGradient id="paint3_linear_1906_44743" x1="8.92805" y1="23.2884" x2="17.3632" y2="15.0487" gradientUnits="userSpaceOnUse">
<stop stop-color="#712B8F"/>
<stop offset="1" stop-color="#EA1D27"/>
</linearGradient>
</defs>
</svg>
