<svg width="18" height="13" viewBox="0 0 18 13" fill="none" xmlns="http://www.w3.org/2000/svg">
<g id="arrows-down-top-move-1">
<path id="Path" fill-rule="evenodd" clip-rule="evenodd" d="M9.73524 11.7789C10.2228 12.1747 10.921 12.1747 11.4086 11.7789L16.8897 7.32915C17.4714 6.85665 17.4714 6.09078 16.8897 5.61973L11.4089 1.17022C10.9212 0.774287 10.2227 0.77436 9.73511 1.17039L9.6135 1.26916C9.02189 1.74966 9.02203 2.65269 9.61379 3.133C10.4915 3.84543 9.98777 5.26545 8.85729 5.26545H1.4676C0.799992 5.26545 0.258789 5.80665 0.258789 6.47426C0.258789 7.14187 0.799993 7.68307 1.4676 7.68307H8.85714C9.98787 7.68307 10.4919 9.10333 9.61404 9.81608C9.02216 10.2967 9.02219 11.2 9.61411 11.6805L9.73524 11.7789Z" fill="white"/>
</g>
</svg>
