<svg width="23" height="23" viewBox="0 0 23 23" fill="none" xmlns="http://www.w3.org/2000/svg">
<g id="Icon/Outline/bell">
<path id="Icon" d="M14.25 16.0833H18.8333L17.5454 14.7955C17.1962 14.4462 17 13.9725 17 13.4786V10.5833C17 8.1886 15.4695 6.15133 13.3333 5.3963V5.08333C13.3333 4.07081 12.5125 3.25 11.5 3.25C10.4874 3.25 9.66663 4.07081 9.66663 5.08333V5.3963C7.53044 6.15133 5.99996 8.1886 5.99996 10.5833V13.4786C5.99996 13.9725 5.80375 14.4462 5.45448 14.7955L4.16663 16.0833H8.74996M14.25 16.0833V17C14.25 18.5188 13.0187 19.75 11.5 19.75C9.98118 19.75 8.74996 18.5188 8.74996 17V16.0833M14.25 16.0833H8.74996" stroke="#353A40" stroke-linecap="round" stroke-linejoin="round"/>
</g>
</svg>
