<svg width="17" height="16" viewBox="0 0 17 16" fill="none" xmlns="http://www.w3.org/2000/svg">
<g id="cart" clip-path="url(#clip0_1979_24440)">
<path id="Vector" d="M5.5 15C6.05228 15 6.5 14.5523 6.5 14C6.5 13.4477 6.05228 13 5.5 13C4.94772 13 4.5 13.4477 4.5 14C4.5 14.5523 4.94772 15 5.5 15Z" fill="#FAFAFA"/>
<path id="Vector_2" d="M12.5 15C13.0523 15 13.5 14.5523 13.5 14C13.5 13.4477 13.0523 13 12.5 13C11.9477 13 11.5 13.4477 11.5 14C11.5 14.5523 11.9477 15 12.5 15Z" fill="#FAFAFA"/>
<path id="Vector_3" d="M14.5 3.5H3.41L3 1.4C2.97662 1.28536 2.91379 1.18255 2.82243 1.10947C2.73107 1.03638 2.61697 0.997644 2.5 1H0.5V2H2.09L4 11.6C4.02338 11.7146 4.08621 11.8175 4.17757 11.8905C4.26893 11.9636 4.38303 12.0024 4.5 12H13.5V11H4.91L4.5 9H13.5C13.6156 9.00283 13.7286 8.96551 13.8197 8.8944C13.9109 8.8233 13.9746 8.72279 14 8.61L15 4.11C15.0168 4.03582 15.0164 3.95878 14.9989 3.88477C14.9814 3.81075 14.9472 3.74171 14.899 3.68289C14.8508 3.62407 14.7898 3.57702 14.7206 3.54533C14.6515 3.51364 14.576 3.49813 14.5 3.5ZM13.1 8H4.31L3.61 4.5H13.875L13.1 8Z" fill="#FAFAFA"/>
</g>
<defs>
<clipPath id="clip0_1979_24440">
<rect width="16" height="16" fill="white" transform="translate(0.5)"/>
</clipPath>
</defs>
</svg>
