<svg width="90" height="28" viewBox="0 0 90 28" fill="none" xmlns="http://www.w3.org/2000/svg">
<g id="Group">
<path id="Vector" d="M86.8 28H2.8C1.26 28 0 26.74 0 25.2V2.8C0 1.26 1.26 0 2.8 0H86.8C88.34 0 89.6 1.26 89.6 2.8V25.2C89.6 26.74 88.34 28 86.8 28Z" fill="white"/>
<path id="Vector_2" d="M18.9 13.86C18.9 11.69 20.72 10.64 20.79 10.57C19.74 9.1 18.2 8.89 17.64 8.82C16.31 8.68 14.98 9.59 14.35 9.59C13.65 9.59 12.6 8.82 11.48 8.82C10.01 8.82 8.68 9.66 7.91 10.99C6.37 13.65 7.49 17.57 8.96 19.74C9.73 20.79 10.57 21.98 11.69 21.91C12.81 21.84 13.23 21.21 14.56 21.21C15.89 21.21 16.24 21.91 17.43 21.91C18.62 21.91 19.39 20.86 20.09 19.81C20.93 18.62 21.28 17.43 21.28 17.36C21.21 17.29 18.9 16.45 18.9 13.86Z" fill="black"/>
<path id="Vector_3" d="M16.7297 7.42C17.2897 6.65 17.7097 5.67 17.6397 4.62C16.7997 4.69 15.6797 5.17999 15.1197 5.94999C14.5597 6.57999 14.0697 7.62999 14.2097 8.60999C15.1197 8.67999 16.0997 8.12 16.7297 7.42Z" fill="black"/>
<path id="Vector_4" d="M34.8598 21.77H33.3198L32.4798 19.11H29.5398L28.7698 21.77H27.2998L30.2398 12.74H32.0598L34.8598 21.77ZM32.1998 17.99L31.4298 15.61C31.3598 15.4 31.2198 14.77 30.9398 13.93C30.8698 14.28 30.7298 14.91 30.5198 15.61L29.7498 17.99H32.1998Z" fill="black"/>
<path id="Vector_5" d="M42.3498 18.48C42.3498 19.6 42.0698 20.44 41.4398 21.14C40.8798 21.7 40.2498 21.98 39.4098 21.98C38.5698 21.98 37.9398 21.7 37.5898 21.07V24.5H36.1198V17.5C36.1198 16.8 36.1198 16.1 36.0498 15.33H37.3098L37.3798 16.38C37.8698 15.61 38.5698 15.19 39.5498 15.19C40.3198 15.19 40.9498 15.47 41.4398 16.1C42.0698 16.66 42.3498 17.43 42.3498 18.48ZM40.8798 18.48C40.8798 17.85 40.7398 17.29 40.4598 16.94C40.1798 16.52 39.7598 16.31 39.1998 16.31C38.8498 16.31 38.4998 16.45 38.2198 16.66C37.9398 16.87 37.7298 17.22 37.6598 17.57C37.5898 17.78 37.5898 17.92 37.5898 17.99V19.11C37.5898 19.6 37.7298 19.95 38.0098 20.3C38.2898 20.65 38.7098 20.79 39.1298 20.79C39.6898 20.79 40.1098 20.58 40.3898 20.16C40.7398 19.74 40.8798 19.18 40.8798 18.48Z" fill="black"/>
<path id="Vector_6" d="M49.8391 18.48C49.8391 19.6 49.5591 20.44 48.9291 21.14C48.3691 21.7 47.7391 21.98 46.8991 21.98C46.0591 21.98 45.4291 21.7 45.0791 21.07V24.5H43.6091V17.5C43.6091 16.8 43.6091 16.1 43.5391 15.33H44.7991L44.8691 16.38C45.3591 15.61 46.0591 15.19 47.0391 15.19C47.8091 15.19 48.4391 15.47 48.9291 16.1C49.5591 16.66 49.8391 17.43 49.8391 18.48ZM48.3691 18.48C48.3691 17.85 48.2291 17.29 47.9491 16.94C47.6691 16.52 47.2491 16.31 46.6891 16.31C46.3391 16.31 45.9891 16.45 45.7091 16.66C45.4291 16.87 45.2191 17.22 45.1491 17.57C45.0791 17.78 45.0791 17.92 45.0791 17.99V19.11C45.0791 19.6 45.2191 19.95 45.4991 20.3C45.7791 20.65 46.1991 20.79 46.6191 20.79C47.1791 20.79 47.5991 20.58 47.8791 20.16C48.2291 19.74 48.3691 19.18 48.3691 18.48Z" fill="black"/>
<path id="Vector_7" d="M58.2409 19.25C58.2409 20.02 57.9609 20.65 57.4709 21.14C56.9109 21.7 56.0709 21.91 55.0209 21.91C54.0409 21.91 53.2709 21.7 52.7109 21.35L53.0609 20.16C53.6909 20.51 54.3909 20.72 55.1609 20.72C55.7209 20.72 56.1409 20.58 56.4209 20.37C56.7009 20.09 56.8409 19.81 56.8409 19.39C56.8409 19.04 56.7009 18.69 56.4909 18.48C56.2109 18.2 55.7909 17.99 55.2309 17.78C53.6209 17.22 52.8509 16.31 52.8509 15.19C52.8509 14.42 53.1309 13.86 53.6909 13.37C54.2509 12.88 54.9509 12.67 55.9309 12.67C56.7709 12.67 57.4009 12.81 57.9609 13.09L57.6109 14.28C57.1209 14 56.5609 13.86 55.8609 13.86C55.3709 13.86 54.9509 14 54.6709 14.21C54.4609 14.42 54.3209 14.7 54.3209 15.05C54.3209 15.4 54.4609 15.68 54.7409 15.96C54.9509 16.17 55.4409 16.38 56.0709 16.66C56.8409 16.94 57.4009 17.36 57.8209 17.78C58.0309 18.13 58.2409 18.62 58.2409 19.25Z" fill="black"/>
<path id="Vector_8" d="M63.0007 16.38H61.3907V19.53C61.3907 20.3 61.6707 20.72 62.2307 20.72C62.5107 20.72 62.7207 20.72 62.8607 20.65L62.9307 21.77C62.6507 21.91 62.3007 21.91 61.8107 21.91C61.2507 21.91 60.7607 21.77 60.4807 21.42C60.1307 21.07 59.9907 20.51 59.9907 19.67V16.38H59.0107V15.26H59.9907V14.07L61.3907 13.65V15.26H63.0007V16.38Z" fill="black"/>
<path id="Vector_9" d="M70.2098 18.48C70.2098 19.46 69.9299 20.3 69.3699 20.93C68.7399 21.56 67.9698 21.91 66.9898 21.91C66.0098 21.91 65.2399 21.56 64.6799 20.93C64.1199 20.3 63.8398 19.53 63.8398 18.55C63.8398 17.57 64.1198 16.73 64.7498 16.1C65.3098 15.47 66.1499 15.12 67.1299 15.12C68.1099 15.12 68.8798 15.47 69.4398 16.1C69.9298 16.73 70.2098 17.5 70.2098 18.48ZM68.6699 18.55C68.6699 17.92 68.5298 17.43 68.2498 17.01C67.9698 16.52 67.4799 16.24 66.9199 16.24C66.3599 16.24 65.8698 16.52 65.5898 17.01C65.3098 17.43 65.1699 17.99 65.1699 18.55C65.1699 19.18 65.3098 19.67 65.5898 20.09C65.8698 20.58 66.3599 20.86 66.9199 20.86C67.4799 20.86 67.8998 20.58 68.2498 20.09C68.5298 19.67 68.6699 19.11 68.6699 18.55Z" fill="black"/>
<path id="Vector_10" d="M74.9001 16.52C74.7601 16.52 74.6201 16.45 74.4101 16.45C73.9201 16.45 73.5001 16.66 73.2201 17.01C73.0101 17.36 72.8701 17.78 72.8701 18.27V21.7H71.4001V17.22C71.4001 16.45 71.4001 15.82 71.3301 15.19H72.5901L72.6601 16.45H72.7301C72.8701 16.03 73.1501 15.68 73.4301 15.4C73.7801 15.19 74.1301 15.05 74.4801 15.05C74.6201 15.05 74.7601 15.05 74.8301 15.05V16.52H74.9001Z" fill="black"/>
<path id="Vector_11" d="M81.3403 18.2C81.3403 18.48 81.3403 18.69 81.2703 18.83H76.9303C76.9303 19.46 77.1403 19.95 77.5603 20.3C77.9103 20.58 78.4003 20.79 78.9603 20.79C79.5903 20.79 80.2203 20.72 80.7103 20.51L80.9203 21.49C80.2903 21.77 79.5903 21.91 78.7503 21.91C77.7703 21.91 76.9303 21.63 76.3703 21C75.8103 20.44 75.5303 19.6 75.5303 18.62C75.5303 17.64 75.8103 16.8 76.3003 16.17C76.8603 15.47 77.6303 15.12 78.6103 15.12C79.5203 15.12 80.2903 15.47 80.7103 16.17C81.2003 16.73 81.3403 17.43 81.3403 18.2ZM80.0103 17.85C80.0103 17.43 79.9403 17.08 79.7303 16.73C79.4503 16.31 79.1003 16.1 78.6103 16.1C78.1203 16.1 77.7703 16.31 77.4903 16.66C77.2803 16.94 77.1403 17.36 77.0703 17.78H80.0103V17.85Z" fill="black"/>
<path id="Vector_12" d="M31.7796 7.20999C31.7796 7.97999 31.5696 8.60999 31.0796 9.02999C30.6596 9.37999 30.0296 9.58999 29.1896 9.58999C28.7696 9.58999 28.4196 9.58998 28.1396 9.51998V5.17999C28.4896 5.10999 28.9096 5.10999 29.3996 5.10999C30.1696 5.10999 30.7296 5.24999 31.1496 5.59999C31.4996 5.94999 31.7796 6.50999 31.7796 7.20999ZM31.0096 7.20999C31.0096 6.71999 30.8696 6.29999 30.5896 6.01999C30.3096 5.73999 29.8896 5.59999 29.3996 5.59999C29.1896 5.59999 28.9796 5.59999 28.8396 5.66999V8.95999C28.9096 8.95999 29.1196 8.95999 29.3296 8.95999C29.8896 8.95999 30.3096 8.81999 30.5896 8.53999C30.8696 8.25999 31.0096 7.76999 31.0096 7.20999Z" fill="black"/>
<path id="Vector_13" d="M35.6998 7.90998C35.6998 8.39998 35.5598 8.81998 35.2798 9.09998C34.9998 9.44998 34.5798 9.58998 34.0898 9.58998C33.5998 9.58998 33.2498 9.44998 32.9698 9.09998C32.6898 8.81998 32.5498 8.39998 32.5498 7.90998C32.5498 7.41998 32.6898 6.99998 32.9698 6.71998C33.2498 6.36998 33.6698 6.22998 34.1598 6.22998C34.6498 6.22998 34.9998 6.36998 35.2798 6.71998C35.5598 6.99998 35.6998 7.41998 35.6998 7.90998ZM34.9998 7.90998C34.9998 7.62998 34.9298 7.34998 34.7898 7.13998C34.6498 6.85998 34.4398 6.78998 34.1598 6.78998C33.8798 6.78998 33.6698 6.92998 33.5298 7.13998C33.3898 7.34998 33.3198 7.62998 33.3198 7.90998C33.3198 8.18998 33.3898 8.46998 33.5298 8.67998C33.6698 8.95998 33.8798 9.02998 34.1598 9.02998C34.4398 9.02998 34.6498 8.88998 34.7898 8.60998C34.9298 8.46998 34.9998 8.18998 34.9998 7.90998Z" fill="black"/>
<path id="Vector_14" d="M41.0904 6.29999L40.1104 9.51999H39.4804L39.0604 8.11999C38.9204 7.76999 38.8504 7.41999 38.7804 7.06999C38.7104 7.41999 38.6404 7.76999 38.5004 8.11999L38.0804 9.51999H37.4504L36.4004 6.29999H37.1004L37.4504 7.83999C37.5204 8.18999 37.5904 8.53999 37.6604 8.88999C37.7304 8.60999 37.8004 8.25999 37.9404 7.83999L38.3604 6.29999H38.9204L39.3404 7.76999C39.4804 8.11999 39.5504 8.46999 39.6204 8.81999C39.6904 8.46999 39.7604 8.11999 39.8304 7.76999L40.2504 6.29999H41.0904Z" fill="black"/>
<path id="Vector_15" d="M44.73 9.51999H44.03V7.69999C44.03 7.13999 43.82 6.85999 43.4 6.85999C43.19 6.85999 43.05 6.92999 42.91 7.06999C42.77 7.20999 42.7 7.41999 42.7 7.62999V9.51999H42V7.20999C42 6.92999 42 6.64999 42 6.29999H42.63V6.78999C42.7 6.64999 42.84 6.50999 42.98 6.36999C43.19 6.22999 43.4 6.15999 43.61 6.15999C43.89 6.15999 44.17 6.22999 44.38 6.43999C44.66 6.64999 44.73 6.99999 44.73 7.48999V9.51999Z" fill="black"/>
<path id="Vector_16" d="M46.6893 9.51999H45.9893V4.82999H46.6893V9.51999Z" fill="black"/>
<path id="Vector_17" d="M50.8893 7.90998C50.8893 8.39998 50.7493 8.81998 50.4693 9.09998C50.1893 9.44998 49.7693 9.58998 49.2793 9.58998C48.7893 9.58998 48.4393 9.44998 48.1593 9.09998C47.8793 8.81998 47.7393 8.39998 47.7393 7.90998C47.7393 7.41998 47.8793 6.99998 48.1593 6.71998C48.4393 6.43998 48.8593 6.22998 49.3493 6.22998C49.8393 6.22998 50.1893 6.36998 50.4693 6.71998C50.7493 6.99998 50.8893 7.41998 50.8893 7.90998ZM50.1893 7.90998C50.1893 7.62998 50.1193 7.34998 49.9793 7.13998C49.8393 6.85998 49.6293 6.78998 49.3493 6.78998C49.0693 6.78998 48.8593 6.92998 48.7193 7.13998C48.5793 7.34998 48.5093 7.62998 48.5093 7.90998C48.5093 8.18998 48.5793 8.46998 48.7193 8.67998C48.8593 8.95998 49.0693 9.02998 49.3493 9.02998C49.6293 9.02998 49.8393 8.88998 49.9793 8.60998C50.1193 8.46998 50.1893 8.18998 50.1893 7.90998Z" fill="black"/>
<path id="Vector_18" d="M54.3205 9.51998H53.6905L53.6205 9.16998C53.4105 9.44998 53.0605 9.58998 52.7105 9.58998C52.4305 9.58998 52.1505 9.51998 52.0105 9.30998C51.8705 9.09998 51.7305 8.88998 51.7305 8.67998C51.7305 8.25998 51.8705 7.97998 52.2205 7.76998C52.5705 7.55998 52.9905 7.48998 53.6205 7.48998V7.41998C53.6205 6.99998 53.4105 6.78998 52.9905 6.78998C52.6405 6.78998 52.4305 6.85998 52.1505 6.99998L52.0105 6.50998C52.2905 6.29998 52.6405 6.22998 53.1305 6.22998C53.9705 6.22998 54.3905 6.64998 54.3905 7.55998V8.74998C54.3205 9.09998 54.3205 9.30998 54.3205 9.51998ZM53.6205 8.39998V7.90998C52.8505 7.90998 52.4305 8.11998 52.4305 8.53998C52.4305 8.67998 52.5005 8.81998 52.5705 8.88998C52.6405 8.95998 52.7805 9.02998 52.9205 9.02998C53.0605 9.02998 53.2005 8.95998 53.3405 8.88998C53.4805 8.81998 53.5505 8.67998 53.6205 8.53998C53.6205 8.53998 53.6205 8.46998 53.6205 8.39998Z" fill="black"/>
<path id="Vector_19" d="M58.3801 9.51999H57.7501V9.02999C57.5401 9.44999 57.1901 9.58999 56.7001 9.58999C56.2801 9.58999 56.0001 9.44999 55.7201 9.16999C55.4401 8.88999 55.3701 8.46999 55.3701 7.97999C55.3701 7.48999 55.5101 7.06999 55.7901 6.71999C56.0701 6.43999 56.4201 6.29999 56.7701 6.29999C57.1901 6.29999 57.4701 6.43999 57.6801 6.71999V4.89999H58.3801V8.67999C58.3801 8.95999 58.3801 9.23999 58.3801 9.51999ZM57.6801 8.18999V7.62999C57.6801 7.55999 57.6801 7.48999 57.6801 7.41999C57.6101 7.27999 57.5401 7.13999 57.4001 6.99999C57.2601 6.85999 57.1201 6.85999 56.9101 6.85999C56.6301 6.85999 56.4201 6.99999 56.2801 7.20999C56.1401 7.41999 56.0701 7.69999 56.0701 8.04999C56.0701 8.39999 56.1401 8.60999 56.2801 8.81999C56.4201 9.02999 56.6301 9.16999 56.9101 9.16999C57.1201 9.16999 57.3301 9.09999 57.4701 8.88999C57.6101 8.60999 57.6801 8.39999 57.6801 8.18999Z" fill="black"/>
<path id="Vector_20" d="M64.4693 7.90998C64.4693 8.39998 64.3293 8.81998 64.0493 9.09998C63.7693 9.44998 63.3493 9.58998 62.8593 9.58998C62.3693 9.58998 62.0193 9.44998 61.7393 9.09998C61.4593 8.81998 61.3193 8.39998 61.3193 7.90998C61.3193 7.41998 61.4593 6.99998 61.7393 6.71998C62.0193 6.36998 62.4393 6.22998 62.9293 6.22998C63.4193 6.22998 63.7693 6.36998 64.0493 6.71998C64.3293 6.99998 64.4693 7.41998 64.4693 7.90998ZM63.6993 7.90998C63.6993 7.62998 63.6293 7.34998 63.4893 7.13998C63.3493 6.85998 63.1393 6.78998 62.8593 6.78998C62.5793 6.78998 62.3693 6.92998 62.2293 7.13998C62.0893 7.34998 62.0193 7.62998 62.0193 7.90998C62.0193 8.18998 62.0893 8.46998 62.2293 8.67998C62.3693 8.95998 62.5793 9.02998 62.8593 9.02998C63.1393 9.02998 63.3493 8.88998 63.4893 8.60998C63.6293 8.46998 63.6993 8.18998 63.6993 7.90998Z" fill="black"/>
<path id="Vector_21" d="M68.3199 9.52H67.6199V7.7C67.6199 7.14 67.4098 6.86 66.9898 6.86C66.7798 6.86 66.6398 6.93 66.4998 7.07C66.3598 7.21 66.2898 7.42 66.2898 7.63V9.52H65.5898V7.21C65.5898 6.93 65.5898 6.65 65.5898 6.3H66.2199V6.79C66.2899 6.65 66.4299 6.51 66.5699 6.37C66.7799 6.23 66.9898 6.16 67.1998 6.16C67.4798 6.16 67.7599 6.23 67.9699 6.44C68.2499 6.65 68.3199 7 68.3199 7.49V9.52Z" fill="black"/>
<path id="Vector_22" d="M73.0795 6.86H72.3095V8.4C72.3095 8.82 72.4495 8.96 72.7295 8.96C72.8695 8.96 72.9395 8.96 73.0795 8.96V9.52C72.9395 9.59 72.7295 9.59 72.5195 9.59C72.2395 9.59 72.0295 9.52 71.8895 9.31C71.7495 9.17 71.6795 8.82 71.6795 8.47V6.86H71.1895V6.3H71.6795V5.74L72.3795 5.53V6.3H73.1495V6.86H73.0795Z" fill="black"/>
<path id="Vector_23" d="M76.8599 9.51999H76.1599V7.69999C76.1599 7.13999 75.9499 6.85999 75.5299 6.85999C75.1799 6.85999 74.9699 6.99999 74.8299 7.34999C74.8299 7.41999 74.8299 7.48999 74.8299 7.62999V9.51999H74.1299V4.82999H74.8299V6.78999C75.0399 6.43999 75.3899 6.22999 75.8099 6.22999C76.0899 6.22999 76.3699 6.29999 76.5099 6.50999C76.7199 6.71999 76.8599 7.13999 76.8599 7.55999V9.51999Z" fill="black"/>
<path id="Vector_24" d="M80.7102 7.76999C80.7102 7.90999 80.7102 7.97999 80.7102 8.11999H78.6102C78.6102 8.46999 78.7502 8.67999 78.8902 8.81999C79.1002 8.95999 79.3102 9.02999 79.5902 9.02999C79.9402 9.02999 80.2202 8.95999 80.4302 8.88999L80.5702 9.37999C80.2902 9.51999 79.9402 9.58999 79.5202 9.58999C79.0302 9.58999 78.6102 9.44999 78.3302 9.16999C78.0502 8.88999 77.9102 8.46999 77.9102 7.97999C77.9102 7.48999 78.0502 7.06999 78.3302 6.78999C78.6102 6.43999 78.9602 6.29999 79.4502 6.29999C79.9402 6.29999 80.2902 6.43999 80.5002 6.78999C80.6402 6.99999 80.7102 7.34999 80.7102 7.76999ZM80.0802 7.55999C80.0802 7.34999 80.0102 7.13999 79.9402 6.99999C79.8002 6.78999 79.6602 6.71999 79.3802 6.71999C79.1702 6.71999 78.9602 6.78999 78.8202 6.99999C78.6802 7.13999 78.6102 7.34999 78.6102 7.55999H80.0802Z" fill="black"/>
</g>
</svg>
