<svg width="16" height="16" viewBox="0 0 16 16" fill="none" xmlns="http://www.w3.org/2000/svg">
<g id="ant-design:unordered-list-outlined">
<path id="Vector" d="M13.8594 3.3125H5.30469C5.24023 3.3125 5.1875 3.36523 5.1875 3.42969V4.25C5.1875 4.31445 5.24023 4.36719 5.30469 4.36719H13.8594C13.9238 4.36719 13.9766 4.31445 13.9766 4.25V3.42969C13.9766 3.36523 13.9238 3.3125 13.8594 3.3125ZM13.8594 7.47266H5.30469C5.24023 7.47266 5.1875 7.52539 5.1875 7.58984V8.41016C5.1875 8.47461 5.24023 8.52734 5.30469 8.52734H13.8594C13.9238 8.52734 13.9766 8.47461 13.9766 8.41016V7.58984C13.9766 7.52539 13.9238 7.47266 13.8594 7.47266ZM13.8594 11.6328H5.30469C5.24023 11.6328 5.1875 11.6855 5.1875 11.75V12.5703C5.1875 12.6348 5.24023 12.6875 5.30469 12.6875H13.8594C13.9238 12.6875 13.9766 12.6348 13.9766 12.5703V11.75C13.9766 11.6855 13.9238 11.6328 13.8594 11.6328ZM2.02344 3.83984C2.02344 3.94757 2.04466 4.05424 2.08588 4.15376C2.1271 4.25329 2.18753 4.34372 2.2637 4.41989C2.33987 4.49607 2.43031 4.55649 2.52983 4.59771C2.62935 4.63894 2.73603 4.66016 2.84375 4.66016C2.95147 4.66016 3.05815 4.63894 3.15767 4.59771C3.25719 4.55649 3.34763 4.49607 3.4238 4.41989C3.49997 4.34372 3.5604 4.25329 3.60162 4.15376C3.64284 4.05424 3.66406 3.94757 3.66406 3.83984C3.66406 3.73212 3.64284 3.62545 3.60162 3.52592C3.5604 3.4264 3.49997 3.33597 3.4238 3.2598C3.34763 3.18362 3.25719 3.1232 3.15767 3.08197C3.05815 3.04075 2.95147 3.01953 2.84375 3.01953C2.73603 3.01953 2.62935 3.04075 2.52983 3.08197C2.43031 3.1232 2.33987 3.18362 2.2637 3.2598C2.18753 3.33597 2.1271 3.4264 2.08588 3.52592C2.04466 3.62545 2.02344 3.73212 2.02344 3.83984ZM2.02344 8C2.02344 8.10773 2.04466 8.2144 2.08588 8.31392C2.1271 8.41345 2.18753 8.50388 2.2637 8.58005C2.33987 8.65622 2.43031 8.71665 2.52983 8.75787C2.62935 8.79909 2.73603 8.82031 2.84375 8.82031C2.95147 8.82031 3.05815 8.79909 3.15767 8.75787C3.25719 8.71665 3.34763 8.65622 3.4238 8.58005C3.49997 8.50388 3.5604 8.41345 3.60162 8.31392C3.64284 8.2144 3.66406 8.10773 3.66406 8C3.66406 7.89227 3.64284 7.7856 3.60162 7.68608C3.5604 7.58656 3.49997 7.49612 3.4238 7.41995C3.34763 7.34378 3.25719 7.28335 3.15767 7.24213C3.05815 7.20091 2.95147 7.17969 2.84375 7.17969C2.73603 7.17969 2.62935 7.20091 2.52983 7.24213C2.43031 7.28335 2.33987 7.34378 2.2637 7.41995C2.18753 7.49612 2.1271 7.58656 2.08588 7.68608C2.04466 7.7856 2.02344 7.89227 2.02344 8ZM2.02344 12.1602C2.02344 12.2679 2.04466 12.3746 2.08588 12.4741C2.1271 12.5736 2.18753 12.664 2.2637 12.7402C2.33987 12.8164 2.43031 12.8768 2.52983 12.918C2.62935 12.9593 2.73603 12.9805 2.84375 12.9805C2.95147 12.9805 3.05815 12.9593 3.15767 12.918C3.25719 12.8768 3.34763 12.8164 3.4238 12.7402C3.49997 12.664 3.5604 12.5736 3.60162 12.4741C3.64284 12.3746 3.66406 12.2679 3.66406 12.1602C3.66406 12.0524 3.64284 11.9458 3.60162 11.8462C3.5604 11.7467 3.49997 11.6563 3.4238 11.5801C3.34763 11.5039 3.25719 11.4435 3.15767 11.4023C3.05815 11.3611 2.95147 11.3398 2.84375 11.3398C2.73603 11.3398 2.62935 11.3611 2.52983 11.4023C2.43031 11.4435 2.33987 11.5039 2.2637 11.5801C2.18753 11.6563 2.1271 11.7467 2.08588 11.8462C2.04466 11.9458 2.02344 12.0524 2.02344 12.1602Z" fill="#353A40"/>
</g>
</svg>
