<svg width="16" height="16" viewBox="0 0 20 21" fill="none" xmlns="http://www.w3.org/2000/svg">
<g id="Icon/Outline/share">
<g id="Icon">
<path d="M17.5 5.5C17.5 6.88071 16.3807 8 15 8C14.0213 8 13.1739 7.43757 12.7634 6.61828C12.5949 6.28179 12.5 5.90197 12.5 5.5C12.5 4.11929 13.6193 3 15 3C16.3807 3 17.5 4.11929 17.5 5.5Z" fill="#353A40"/>
<path d="M17.5 15.5C17.5 16.8807 16.3807 18 15 18C13.6193 18 12.5 16.8807 12.5 15.5C12.5 15.098 12.5949 14.7182 12.7634 14.3817C13.1739 13.5624 14.0213 13 15 13C16.3807 13 17.5 14.1193 17.5 15.5Z" fill="#353A40"/>
<path d="M7.5 10.5C7.5 10.902 7.40513 11.2818 7.23656 11.6183C6.82611 12.4376 5.97874 13 5 13C3.61929 13 2.5 11.8807 2.5 10.5C2.5 9.11929 3.61929 8 5 8C5.97874 8 6.82611 8.56243 7.23656 9.38172C7.40513 9.71821 7.5 10.098 7.5 10.5Z" fill="#353A40"/>
<path d="M7.23656 11.6183C7.40513 11.2818 7.5 10.902 7.5 10.5C7.5 10.098 7.40513 9.71821 7.23656 9.38172M7.23656 11.6183C6.82611 12.4376 5.97874 13 5 13C3.61929 13 2.5 11.8807 2.5 10.5C2.5 9.11929 3.61929 8 5 8C5.97874 8 6.82611 8.56243 7.23656 9.38172M7.23656 11.6183L12.7634 14.3817M7.23656 9.38172L12.7634 6.61828M12.7634 6.61828C13.1739 7.43757 14.0213 8 15 8C16.3807 8 17.5 6.88071 17.5 5.5C17.5 4.11929 16.3807 3 15 3C13.6193 3 12.5 4.11929 12.5 5.5C12.5 5.90197 12.5949 6.28179 12.7634 6.61828ZM12.7634 14.3817C12.5949 14.7182 12.5 15.098 12.5 15.5C12.5 16.8807 13.6193 18 15 18C16.3807 18 17.5 16.8807 17.5 15.5C17.5 14.1193 16.3807 13 15 13C14.0213 13 13.1739 13.5624 12.7634 14.3817Z" stroke="#252525" stroke-linecap="round" stroke-linejoin="round"/>
</g>
</g>
</svg>
