<svg width="137" height="34" viewBox="0 0 137 34" fill="none" xmlns="http://www.w3.org/2000/svg">
<g id="Social icons">
<g id="Twitter">
<path id="Oval 10 Copy" opacity="0.25" fill-rule="evenodd" clip-rule="evenodd" d="M118.5 33.2199C128.165 33.2199 136 26.0072 136 17.1099C136 8.21267 128.165 1 118.5 1C108.835 1 101 8.21267 101 17.1099C101 26.0072 108.835 33.2199 118.5 33.2199Z" stroke="white" stroke-width="1.5"/>
<path id="Shape" d="M124.22 14.1316C124.139 14.0471 124.008 14.0259 123.901 14.078C123.834 14.1104 123.708 14.1529 123.559 14.1949C123.747 13.9581 123.899 13.693 123.965 13.4547C123.994 13.352 123.952 13.2437 123.86 13.1825C123.768 13.1218 123.646 13.1218 123.554 13.1825C123.409 13.2781 122.71 13.5655 122.268 13.6586C121.27 12.8303 120.107 12.7443 118.899 13.4122C117.917 13.9551 117.703 15.0591 117.745 15.732C115.497 15.5271 114.1 14.4028 113.313 13.4724C113.258 13.4071 113.17 13.3727 113.086 13.3778C112.999 13.3838 112.919 13.4299 112.875 13.5012C112.503 14.0957 112.4 14.7529 112.577 15.4021C112.675 15.7563 112.845 16.0684 113.042 16.3214C112.947 16.2774 112.856 16.2222 112.77 16.1565C112.691 16.0947 112.58 16.0831 112.487 16.1241C112.394 16.1661 112.334 16.2551 112.334 16.3528C112.334 17.4674 113.071 18.2111 113.758 18.5997C113.647 18.5871 113.531 18.5638 113.414 18.5299C113.314 18.5011 113.205 18.5299 113.135 18.6048C113.066 18.6792 113.049 18.7854 113.093 18.876C113.479 19.685 114.211 20.2415 115.117 20.4434C114.326 20.8831 113.267 21.0986 112.298 20.9929C112.172 20.9762 112.053 21.0516 112.013 21.1659C111.974 21.2803 112.025 21.4057 112.136 21.4644C113.607 22.2461 114.936 22.5254 116.085 22.5254C117.757 22.5254 119.047 21.9345 119.833 21.4401C121.95 20.1095 123.27 17.7204 123.086 15.5827C123.426 15.3454 123.933 14.9073 124.248 14.4362C124.313 14.3411 124.301 14.2156 124.22 14.1316Z" fill="white"/>
</g>
<g id="Facebook">
<path id="Oval 10" opacity="0.25" fill-rule="evenodd" clip-rule="evenodd" d="M68.5 33.2199C78.165 33.2199 86 26.0072 86 17.1099C86 8.21267 78.165 1 68.5 1C58.835 1 51 8.21267 51 17.1099C51 26.0072 58.835 33.2199 68.5 33.2199Z" stroke="white" stroke-width="1.5"/>
<path id="Shape_2" d="M70.0932 12.9862H71.7015C71.8495 12.9862 71.9696 12.8821 71.9696 12.7537V11.3585C71.9696 11.2302 71.8495 11.126 71.7015 11.126H70.0932C68.4676 11.126 67.1445 12.2733 67.1445 13.6838V15.3116H65.2681C65.1201 15.3116 65 15.4157 65 15.5441V16.9393C65 17.0677 65.1201 17.1718 65.2681 17.1718H67.1445V22.055C67.1445 22.1834 67.2646 22.2876 67.4126 22.2876H69.0209C69.1689 22.2876 69.289 22.1834 69.289 22.055V17.1718H71.1654C71.2807 17.1718 71.3831 17.1077 71.4201 17.0128L71.9562 15.6176C71.9835 15.5469 71.9696 15.4688 71.9192 15.4078C71.8683 15.3474 71.7879 15.3116 71.7015 15.3116H69.289V13.6838C69.289 13.2992 69.6498 12.9862 70.0932 12.9862Z" fill="white"/>
</g>
<g id="Linkedin">
<path id="Oval 10 Copy 3" opacity="0.25" fill-rule="evenodd" clip-rule="evenodd" d="M18.5 33.2199C28.165 33.2199 36 26.0072 36 17.1099C36 8.21267 28.165 1 18.5 1C8.83502 1 1 8.21267 1 17.1099C1 26.0072 8.83502 33.2199 18.5 33.2199Z" stroke="white" stroke-width="1.5"/>
<g id="Group 36">
<path id="Oval" d="M14.4836 13.8576C15.303 13.8576 15.9672 13.2462 15.9672 12.4919C15.9672 11.7377 15.303 11.1262 14.4836 11.1262C13.6643 11.1262 13.0001 11.7377 13.0001 12.4919C13.0001 13.2462 13.6643 13.8576 14.4836 13.8576Z" fill="white"/>
<path id="Shape_3" d="M15.7198 14.7698H13.2473C13.1108 14.7698 13 14.8717 13 14.9974V21.8259C13 21.9516 13.1108 22.0536 13.2473 22.0536H15.7198C15.8563 22.0536 15.967 21.9516 15.967 21.8259V14.9974C15.967 14.8717 15.8563 14.7698 15.7198 14.7698Z" fill="white"/>
<path id="Shape_4" d="M23.088 14.3911C22.0312 14.0579 20.7094 14.3506 19.9167 14.8755C19.8895 14.7776 19.7926 14.7048 19.6773 14.7048H17.2048C17.0683 14.7048 16.9575 14.8067 16.9575 14.9324V21.7609C16.9575 21.8866 17.0683 21.9886 17.2048 21.9886H19.6773C19.8138 21.9886 19.9246 21.8866 19.9246 21.7609V16.8535C20.3242 16.5366 20.839 16.4356 21.2603 16.6004C21.6688 16.7593 21.9027 17.1471 21.9027 17.6638V21.7609C21.9027 21.8866 22.0134 21.9886 22.1499 21.9886H24.6225C24.759 21.9886 24.8698 21.8866 24.8698 21.7609V17.2054C24.8416 15.3348 23.8857 14.6424 23.088 14.3911Z" fill="white"/>
</g>
</g>
</g>
</svg>
