<svg width="16" height="16" viewBox="0 0 16 16" fill="none" xmlns="http://www.w3.org/2000/svg">
<path id="Icon" d="M7.04896 1.42664C7.34833 0.505375 8.65167 0.505375 8.95104 1.42664L10.0208 4.71864C10.1547 5.13063 10.5386 5.40957 10.9718 5.40958L14.4333 5.40971C15.402 5.40975 15.8047 6.6493 15.0211 7.21871L12.2208 9.25341C11.8703 9.50805 11.7237 9.95938 11.8575 10.3714L12.927 13.6635C13.2263 14.5847 12.1719 15.3508 11.3882 14.7815L8.58775 12.747C8.23728 12.4924 7.76272 12.4924 7.41225 12.747L4.61179 14.7815C3.82809 15.3508 2.77367 14.5847 3.07297 13.6635L4.14249 10.3714C4.27634 9.95938 4.1297 9.50805 3.77924 9.25341L0.978944 7.21871C0.195283 6.6493 0.598037 5.40975 1.56672 5.40971L5.02818 5.40958C5.46137 5.40957 5.8453 5.13063 5.97918 4.71864L7.04896 1.42664Z" stroke="#1B2138" stroke-opacity="0.6"/>
</svg>
