<svg width="17" height="16" viewBox="0 0 17 16" fill="none" xmlns="http://www.w3.org/2000/svg">
<g id="ant-design:user-outlined">
<path id="Vector" d="M13.9141 11.9312C13.6194 11.2331 13.1916 10.5989 12.6547 10.0641C12.1195 9.52767 11.4854 9.10001 10.7875 8.80469C10.7813 8.80156 10.775 8.8 10.7688 8.79688C11.7422 8.09375 12.375 6.94844 12.375 5.65625C12.375 3.51562 10.6407 1.78125 8.50004 1.78125C6.35941 1.78125 4.62504 3.51562 4.62504 5.65625C4.62504 6.94844 5.25785 8.09375 6.23129 8.79844C6.22504 8.80156 6.21879 8.80312 6.21254 8.80625C5.51254 9.10156 4.88441 9.525 4.34535 10.0656C3.80896 10.6009 3.3813 11.235 3.08598 11.9328C2.79585 12.616 2.63939 13.3485 2.62504 14.0906C2.62462 14.1073 2.62755 14.1239 2.63364 14.1394C2.63974 14.1549 2.64888 14.1691 2.66053 14.181C2.67218 14.193 2.6861 14.2025 2.70147 14.2089C2.71684 14.2154 2.73336 14.2188 2.75004 14.2188H3.68754C3.75629 14.2188 3.81098 14.1641 3.81254 14.0969C3.84379 12.8906 4.32816 11.7609 5.18441 10.9047C6.07035 10.0188 7.24691 9.53125 8.50004 9.53125C9.75316 9.53125 10.9297 10.0188 11.8157 10.9047C12.6719 11.7609 13.1563 12.8906 13.1875 14.0969C13.1891 14.1656 13.2438 14.2188 13.3125 14.2188H14.25C14.2667 14.2188 14.2832 14.2154 14.2986 14.2089C14.314 14.2025 14.3279 14.193 14.3396 14.181C14.3512 14.1691 14.3603 14.1549 14.3664 14.1394C14.3725 14.1239 14.3755 14.1073 14.375 14.0906C14.3594 13.3438 14.2047 12.6172 13.9141 11.9312ZM8.50004 8.34375C7.78285 8.34375 7.10785 8.06406 6.60004 7.55625C6.09223 7.04844 5.81254 6.37344 5.81254 5.65625C5.81254 4.93906 6.09223 4.26406 6.60004 3.75625C7.10785 3.24844 7.78285 2.96875 8.50004 2.96875C9.21723 2.96875 9.89223 3.24844 10.4 3.75625C10.9079 4.26406 11.1875 4.93906 11.1875 5.65625C11.1875 6.37344 10.9079 7.04844 10.4 7.55625C9.89223 8.06406 9.21723 8.34375 8.50004 8.34375Z" fill="black"/>
</g>
</svg>
